<svg id="Icon" xmlns="http://www.w3.org/2000/svg" viewBox="0 0 1366.25 1000"><defs><style>.cls-1{fill:#fff;}</style></defs><path class="cls-1" d="M1359.42,995H6.82l77.9-98.5h1196.7Zm-166.2-210.1H806.42c-1.3.5-2.6.8-3.9,1.2-3.1,1-6.3,1.9-9.4,2.8s-6.3,1.8-9.6,2.6-6.4,1.6-9.6,2.3c-3.8,1-7.7,1.8-11.6,2.5l-6,1.2-1.9.3q-9.75,1.8-19.8,3c-4.2.5-8.4,1-12.6,1.4a387,387,0,0,1-76.6,0c-4.2-.4-8.4-.9-12.6-1.4-6.6-.7-13.3-1.8-19.8-3l-1.9-.3c-2-.4-4-.7-6.1-1.2-3.9-.7-7.8-1.6-11.6-2.5-3.2-.7-6.4-1.5-9.6-2.3s-6.4-1.7-9.6-2.6-6.3-1.8-9.4-2.8c-1.3-.4-2.5-.7-3.9-1.2H173.12l-61.7,77.9h1143.4ZM381,665.3c-7.2-8.4-14.1-17-20.6-26.1h-72.1l-20.6,26.1H381m696.9-26.1H1007c-6.5,9-13.4,17.7-20.6,26.1h112.2Zm-144.8,77.5c-1.2,1.1-2.5,2-3.7,3-4.3,3.4-8.7,6.7-13.3,9.9s-9.1,6.4-13.7,9.4q-5.55,3.75-11.4,7.2c-2.7,1.6-5.5,3.3-8.3,4.9a.1.1,0,0,1-.1.1h284l-41.3-52.2H953.72c6.4-5.8,12.6-11.9,18.6-18.2h-.1s-10.2,8.4-39.7,18.2c-40,13.2-115.4,28.8-248.6,28.8s-208.8-15.6-248.8-28.8c-29.5-9.7-39.7-18.2-39.7-18.2l-.1.1c6,6.3,12.2,12.3,18.5,18.1H241l-41.3,52.2H485a.1.1,0,0,1-.1-.1c-2.8-1.6-5.6-3.3-8.3-4.9q-5.85-3.45-11.4-7.2c-4.6-3-9.2-6.1-13.7-9.4s-9-6.6-13.3-9.9c-1.3-1-2.5-1.9-3.7-3a15.66,15.66,0,0,1-2.1-1.7c6.3,3.7,58.6,30.8,251.4,30.8s245.1-27.1,251.4-30.8c-.7.6-1.4,1.2-2.1,1.7M284.32,410.3s3.6,52.7,399.4,52.7,399.2-53,399.2-53a48,48,0,0,0,.3-5.5C1083.22,183.9,904.32,5,683.72,5s-399.5,178.9-399.5,399.5C284.22,407.5,284.22,409.3,284.32,410.3Zm795.1,47.1c1.6-11,2.7-22.6,3.2-33.9.1-1.2-7.4,60.1-398.9,60.1s-398.9-60.2-398.9-60.2,1.6,22.6,3.2,33.8c0,0,12.6,58.8,395.8,58.8,371.2,0,394.5-55.5,395.6-58.6m-787,26.2c2.1,11.4,5.1,22.4,8.1,33.4a.1.1,0,0,0,.1.1l.1.1c2.5,4,36.4,57.8,383.1,57.8s380.6-53.8,383.1-57.8l.1-.1.1-.1a338.67,338.67,0,0,0,8.1-33.4c-2.2,4.6-33.4,58.8-391.3,58.8s-389.4-54.2-391.5-58.8m745.7,105.3c3.4-6.5,6.7-13.1,9.7-19.8l-.4.1s-6,11-44.2,23.2a464.08,464.08,0,0,1-55.7,13.1c-54.1,9.6-137,17.3-263.7,17.3s-209.6-7.7-263.7-17.3c-23.7-4.2-41.8-8.7-55.7-13.1-38.2-12.2-44.2-23.2-44.2-23.2h-.4c2.9,6.7,6.2,13.3,9.6,19.7h-1.2l-13.1,16.6h23.7c-.5-.8-1-1.6-1.5-2.5a21.51,21.51,0,0,0,3.1,2.5c10.5,7,52.1,31.4,204,38.9,38.9,1.9,84.9,3.1,139.4,3.1s100.6-1.2,139.3-3.1c150.4-7.5,193.1-31.7,203.8-38.8l24.4-.1Z"/></svg>